<svg width="219" height="36" viewBox="0 0 219 36" fill="none" xmlns="http://www.w3.org/2000/svg">
  <circle cx="18" cy="18" r="18" fill="#3C50E0"/>
  <path d="M18 6.5C11.65 6.5 6.5 11.65 6.5 18C6.5 24.35 11.65 29.5 18 29.5C24.35 29.5 29.5 24.35 29.5 18C29.5 11.65 24.35 6.5 18 6.5ZM18 8.5C20.72 8.5 23.21 9.46 25.16 11.09L21.55 14.7C20.9 13.85 19.72 13.5 18.95 14.27L18.14 15.08C17.55 15.67 16.54 15.53 16.21 14.85L14.92 12.28C14.59 11.6 14.85 10.79 15.53 10.46L18 9.5V8.5ZM9.6 12.16C11.18 10.08 13.45 8.64 16.06 8.11L13.92 12.05C13.1 12.24 12.5 12.97 12.5 13.84V15.84C12.5 16.38 12.05 16.83 11.51 16.83H10.86C10.03 16.83 9.41 17.59 9.61 18.4L10.9 23.58C10.99 23.94 10.89 24.32 10.65 24.59L9.8 25.53C9.08 24.7 8.51 23.77 8.12 22.75C7.2 20.44 6.85 18.4 7.16 16.43C7.34 15.29 7.7 14.2 8.24 13.18C8.68 12.32 9.12 11.62 9.6 12.16ZM26.64 14.05C27.31 15.27 27.72 16.62 27.85 18C28.02 19.73 27.75 21.33 27.19 22.76C27.05 22.5 26.89 22.27 26.7 22.07L25.68 20.89C25.29 20.44 24.63 20.35 24.2 20.68L22.68 21.82C22.22 22.17 21.57 22.08 21.22 21.63L20.07 20.17C19.72 19.72 19.82 19.08 20.28 18.72L21.75 17.5C22.19 17.16 22.73 17.19 23.11 17.53L23.36 17.75C23.83 18.16 24.52 17.97 24.74 17.42L25.08 16.51C25.25 16.08 25.68 15.78 26.13 15.72L26.64 15.65V14.05ZM14.5 21.5C13.67 21.5 13 22.17 13 23C13 23.83 13.67 24.5 14.5 24.5C15.33 24.5 16 23.83 16 23C16 22.17 15.33 21.5 14.5 21.5ZM20.5 24.5C20.09 24.5 19.73 24.79 19.6 25.17L19.15 26.41C18.95 27 18.18 27.23 17.63 26.9L15.87 25.88C15.53 25.68 15.29 25.32 15.24 24.92L15.15 24.28C15.05 23.58 14.42 23.07 13.71 23.15C13.57 23.17 13.43 23.19 13.31 23.23C13.2 23.26 13.1 23.3 13.01 23.34C12.8 23.44 12.61 23.57 12.44 23.73C12.04 24.12 11.82 24.65 11.82 25.2C11.82 25.76 12.04 26.29 12.44 26.68C12.73 26.97 13.08 27.17 13.46 27.28L18.74 29.19C19.7 29.55 20.76 29.25 21.4 28.53C21.93 27.94 22.16 27.17 22.04 26.4L21.82 25.13C21.75 24.72 21.49 24.37 21.13 24.16C20.93 24.05 20.72 23.98 20.5 23.98C19.95 23.98 19.5 24.21 19.5 24.21V24.5H20.5Z" fill="white"/>
  <path d="M48 10.5H44.4V25.5H47.6V19.5H52.1C54.4 19.5 56.1 18 56.1 15.5C56.1 12.9 54.4 10.5 48 10.5ZM48 16.7V13.4H51.9C52.9 13.4 53.4 14 53.4 14.6C53.4 15.2 52.9 16.7 48 16.7Z" fill="#1C274C"/>
  <path d="M60 25.8C62.3 25.8 64.1 24.3 64.1 21.6V16.3C64.1 13.6 62.3 12.1 60 12.1C57.7 12.1 55.9 13.6 55.9 16.3V21.6C55.9 24.3 57.7 25.8 60 25.8ZM60 23.2C59 23.2 58.6 22.3 58.6 21.4V16.5C58.6 15.6 59 14.7 60 14.7C61 14.7 61.4 15.6 61.4 16.5V21.4C61.4 22.3 61 23.2 60 23.2Z" fill="#1C274C"/>
  <path d="M70.5 22.2L67.9 16.3H64.9L69.5 25.5H71.5L76.1 16.3H73.1L70.5 22.2Z" fill="#1C274C"/>
  <path d="M81.3 16.3H78.6V25.5H81.3V16.3ZM78.6 14.4H81.3V11.5H78.6V14.4Z" fill="#1C274C"/>
  <path d="M87.4 25.8C90.4 25.8 92.3 23.9 92.3 20.9V16.3C92.3 13.3 90.4 11.4 87.4 11.4C84.4 11.4 82.5 13.3 82.5 16.3V20.9C82.5 23.9 84.4 25.8 87.4 25.8ZM87.4 23.3C85.9 23.3 85.1 22.4 85.1 20.9V16.3C85.1 14.8 85.9 13.9 87.4 13.9C88.9 13.9 89.7 14.8 89.7 16.3V20.9C89.7 22.4 88.9 23.3 87.4 23.3Z" fill="#1C274C"/>
  <path d="M98 16.3H95.3V25.5H98V16.3ZM95.3 14.4H98V11.5H95.3V14.4Z" fill="#1C274C"/>
  <path d="M104.4 25.8C107.4 25.8 109.3 23.9 109.3 20.9V16.3C109.3 13.3 107.4 11.4 104.4 11.4C101.4 11.4 99.5 13.3 99.5 16.3V20.9C99.5 23.9 101.4 25.8 104.4 25.8ZM104.4 23.3C102.9 23.3 102.1 22.4 102.1 20.9V16.3C102.1 14.8 102.9 13.9 104.4 13.9C105.9 13.9 106.7 14.8 106.7 16.3V20.9C106.7 22.4 105.9 23.3 104.4 23.3Z" fill="#1C274C"/>
  <path d="M115.9 16.3H113.2V25.5H115.9V16.3ZM113.2 14.4H115.9V11.5H113.2V14.4Z" fill="#1C274C"/>
  <path d="M122 25.8C124.9 25.8 126.8 23.9 126.8 20.9V16.3C126.8 13.3 124.9 11.4 121.9 11.4C118.9 11.4 117 13.3 117 16.3V20.9C117 23.9 119 25.8 122 25.8ZM122 23.3C120.5 23.3 119.7 22.4 119.7 20.9V16.3C119.7 14.8 120.5 13.9 122 13.9C123.5 13.9 124.3 14.8 124.3 16.3V20.9C124.3 22.4 123.5 23.3 122 23.3Z" fill="#1C274C"/>
  <text x="132" y="21" font-family="Arial, Helvetica, sans-serif" font-weight="700" font-size="15" fill="#1C274C">C.Ronaldo</text>
  <text x="132" y="30.5" font-family="Arial, Helvetica, sans-serif" font-weight="700" font-size="8" letter-spacing="3" fill="#3C50E0">SPORTS</text>
</svg>
